Codee Sans - Mono Regular Bold.ufo
<glyph name="quotedbl" format="1">
  <advance width="600"/>
  <unicode hex="0022"/>
  <outline>
    <contour>
      <point x="471" y="675" type="line"/>
      <point x="373" y="675" type="line"/>
      <point x="373" y="391" type="line"/>
      <point x="442" y="391" type="line"/>
    </contour>
    <contour>
      <point x="128" y="675" type="line"/>
      <point x="164" y="390" type="line"/>
      <point x="227" y="390" type="line"/>
      <point x="227" y="675" type="line"/>
    </contour>
  </outline>
</glyph>
<glyph name="asterisk" format="1">
  <advance width="600"/>
  <unicode hex="002A"/>
  <outline>
    <contour>
      <point x="324" y="203" type="line"/>
      <point x="322" y="300" type="line"/>
      <point x="403" y="245" type="line"/>
      <point x="428" y="283" type="line"/>
      <point x="338" y="340" type="line"/>
      <point x="428" y="399" type="line"/>
      <point x="403" y="437" type="line"/>
      <point x="323" y="382" type="line"/>
      <point x="324" y="479" type="line"/>
      <point x="277" y="479" type="line"/>
      <point x="279" y="382" type="line"/>
      <point x="197" y="437" type="line"/>
      <point x="172" y="399" type="line"/>
      <point x="262" y="341" type="line"/>
      <point x="172" y="283" type="line"/>
      <point x="197" y="245" type="line"/>
      <point x="278" y="300" type="line"/>
      <point x="277" y="203" type="line"/>
    </contour>
  </outline>
</glyph>
<glyph name="comma" format="1">
  <advance width="600"/>
  <unicode hex="002C"/>
  <outline>
    <contour>
      <point x="393" y="146" type="line"/>
      <point x="257" y="146" type="line"/>
      <point x="257" y="0" type="line"/>
      <point x="206" y="-147" type="line"/>
      <point x="307" y="-147" type="line"/>
      <point x="393" y="0" type="line"/>
    </contour>
  </outline>
</glyph>
<glyph name="zero" format="1">
  <advance width="600"/>
  <unicode hex="0030"/>
  <outline>
    <contour>
      <point x="299" y="63" type="curve" smooth="yes"/>
      <point x="204" y="63"/>
      <point x="161" y="140"/>
      <point x="161" y="312" type="curve" smooth="yes"/>
      <point x="161" y="485"/>
      <point x="204" y="563"/>
      <point x="299" y="563" type="curve" smooth="yes"/>
      <point x="394" y="563"/>
      <point x="437" y="485"/>
      <point x="437" y="312" type="curve" smooth="yes"/>
      <point x="437" y="140"/>
      <point x="394" y="63"/>
    </contour>
    <contour>
      <point x="112" y="176" type="line"/>
      <point x="161" y="127" type="line"/>
      <point x="485" y="450" type="line"/>
      <point x="436" y="499" type="line"/>
    </contour>
    <contour>
      <point x="299" y="632" type="curve" smooth="yes"/>
      <point x="146" y="632"/>
      <point x="78" y="533"/>
      <point x="78" y="312" type="curve" smooth="yes"/>
      <point x="78" y="93"/>
      <point x="146" y="-6"/>
      <point x="299" y="-6" type="curve" smooth="yes"/>
      <point x="453" y="-6"/>
      <point x="521" y="93"/>
      <point x="521" y="312" type="curve" smooth="yes"/>
      <point x="521" y="533"/>
      <point x="453" y="632"/>
    </contour>
  </outline>
</glyph>
<glyph name="three" format="1">
  <advance width="600"/>
  <unicode hex="0033"/>
  <outline>
    <contour>
      <point x="107" y="91" type="curve"/>
      <point x="107" y="8" type="line"/>
      <point x="107" y="8"/>
      <point x="174" y="-6"/>
      <point x="270" y="-6" type="curve" smooth="yes"/>
      <point x="455" y="-6"/>
      <point x="493" y="57"/>
      <point x="493" y="173" type="curve" smooth="yes"/>
      <point x="493" y="262"/>
      <point x="446" y="329"/>
      <point x="359" y="329" type="curve"/>
      <point x="427" y="329"/>
      <point x="463" y="377"/>
      <point x="463" y="466" type="curve" smooth="yes"/>
      <point x="463" y="574"/>
      <point x="406" y="632"/>
      <point x="270" y="632" type="curve" smooth="yes"/>
      <point x="188" y="632"/>
      <point x="107" y="612"/>
      <point x="107" y="612" type="curve"/>
      <point x="107" y="544" type="line"/>
      <point x="107" y="544"/>
      <point x="177" y="566"/>
      <point x="254" y="566" type="curve" smooth="yes"/>
      <point x="312" y="566"/>
      <point x="385" y="554"/>
      <point x="385" y="472" type="curve" smooth="yes"/>
      <point x="385" y="415"/>
      <point x="350" y="361"/>
      <point x="263" y="361" type="curve" smooth="yes"/>
      <point x="204" y="361" type="line"/>
      <point x="204" y="287" type="line"/>
      <point x="269" y="287" type="line" smooth="yes"/>
      <point x="366" y="287"/>
      <point x="407" y="234"/>
      <point x="407" y="170" type="curve" smooth="yes"/>
      <point x="407" y="115"/>
      <point x="375" y="74"/>
      <point x="272" y="74" type="curve" smooth="yes"/>
      <point x="173" y="74"/>
      <point x="107" y="91"/>
    </contour>
  </outline>
</glyph>
<glyph name="four" format="1">
  <advance width="600"/>
  <unicode hex="0034"/>
  <outline>
    <contour>
      <point x="536" y="219" type="line"/>
      <point x="408" y="219" type="line"/>
      <point x="408" y="626" type="line"/>
      <point x="325" y="626" type="line"/>
      <point x="63" y="219" type="line"/>
      <point x="63" y="150" type="line"/>
      <point x="325" y="150" type="line"/>
      <point x="325" y="0" type="line"/>
      <point x="408" y="0" type="line"/>
      <point x="408" y="150" type="line"/>
      <point x="536" y="150" type="line"/>
    </contour>
    <contour>
      <point x="148" y="219" type="line"/>
      <point x="325" y="494" type="line"/>
      <point x="325" y="219" type="line"/>
    </contour>
  </outline>
</glyph>
<glyph name="five" format="1">
  <advance width="600"/>
  <unicode hex="0035"/>
  <outline>
    <contour>
      <point x="136" y="296" type="line"/>
      <point x="136" y="625" type="line"/>
      <point x="477" y="626" type="line"/>
      <point x="477" y="557" type="line"/>
      <point x="213" y="557" type="line"/>
      <point x="213" y="363" type="line"/>
      <point x="282" y="363" type="line" smooth="yes"/>
      <point x="430" y="363"/>
      <point x="512" y="301"/>
      <point x="512" y="187" type="curve" smooth="yes"/>
      <point x="512" y="71"/>
      <point x="425" y="-6"/>
      <point x="263" y="-6" type="curve" smooth="yes"/>
      <point x="166" y="-6"/>
      <point x="87" y="23"/>
      <point x="87" y="23" type="curve"/>
      <point x="87" y="99" type="line"/>
      <point x="87" y="99"/>
      <point x="144" y="67"/>
      <point x="242" y="67" type="curve" smooth="yes"/>
      <point x="361" y="67"/>
      <point x="424" y="110"/>
      <point x="424" y="182" type="curve" smooth="yes"/>
      <point x="424" y="256"/>
      <point x="357" y="296"/>
      <point x="238" y="296" type="curve" smooth="yes"/>
    </contour>
  </outline>
</glyph>
<glyph name="eight" format="1">
  <advance width="600"/>
  <unicode hex="0038"/>
  <outline>
    <contour>
      <point x="300" y="632" type="curve" smooth="yes"/>
      <point x="434" y="632"/>
      <point x="505" y="536"/>
      <point x="505" y="452" type="curve" smooth="yes"/>
      <point x="505" y="345"/>
      <point x="389" y="284"/>
      <point x="389" y="284" type="curve"/>
      <point x="362" y="298" type="line"/>
      <point x="306" y="319" type="line"/>
      <point x="306" y="319"/>
      <point x="415" y="363"/>
      <point x="415" y="452" type="curve" smooth="yes"/>
      <point x="415" y="505"/>
      <point x="375" y="561"/>
      <point x="300" y="561" type="curve" smooth="yes"/>
      <point x="225" y="561"/>
      <point x="185" y="506"/>
      <point x="185" y="449" type="curve" smooth="yes"/>
      <point x="185" y="283"/>
      <point x="518" y="403"/>
      <point x="518" y="179" type="curve" smooth="yes"/>
      <point x="518" y="74"/>
      <point x="446" y="-6"/>
      <point x="309" y="-6" type="curve" smooth="yes"/>
      <point x="161" y="-6"/>
      <point x="82" y="78"/>
      <point x="82" y="182" type="curve" smooth="yes"/>
      <point x="82" y="328"/>
      <point x="239" y="336"/>
      <point x="239" y="336" type="curve"/>
      <point x="268" y="326" type="line"/>
      <point x="311" y="306" type="line"/>
      <point x="311" y="306"/>
      <point x="164" y="316"/>
      <point x="164" y="184" type="curve" smooth="yes"/>
      <point x="164" y="107"/>
      <point x="214" y="66"/>
      <point x="309" y="66" type="curve" smooth="yes"/>
      <point x="383" y="66"/>
      <point x="436" y="104"/>
      <point x="436" y="176" type="curve" smooth="yes"/>
      <point x="436" y="368"/>
      <point x="96" y="223"/>
      <point x="96" y="457" type="curve" smooth="yes"/>
      <point x="96" y="575"/>
      <point x="194" y="632"/>
    </contour>
  </outline>
</glyph>
<glyph name="nine" format="1">
  <advance width="600"/>
  <unicode hex="0039"/>
  <outline>
    <contour>
      <point x="261" y="65" type="curve" smooth="yes"/>
      <point x="191" y="65"/>
      <point x="123" y="100"/>
      <point x="123" y="100" type="curve"/>
      <point x="122" y="25" type="line"/>
      <point x="122" y="25"/>
      <point x="175" y="-6"/>
      <point x="256" y="-6" type="curve" smooth="yes"/>
      <point x="400" y="-6"/>
      <point x="513" y="96"/>
      <point x="513" y="310" type="curve" smooth="yes"/>
      <point x="513" y="528"/>
      <point x="473" y="632"/>
      <point x="297" y="632" type="curve" smooth="yes"/>
      <point x="154" y="632"/>
      <point x="87" y="569"/>
      <point x="87" y="436" type="curve" smooth="yes"/>
      <point x="87" y="305"/>
      <point x="145" y="243"/>
      <point x="270" y="243" type="curve" smooth="yes"/>
      <point x="380" y="243"/>
      <point x="439" y="293"/>
      <point x="439" y="293" type="curve"/>
      <point x="443" y="364" type="line"/>
      <point x="443" y="364"/>
      <point x="395" y="305"/>
      <point x="292" y="305" type="curve" smooth="yes"/>
      <point x="207" y="305"/>
      <point x="167" y="347"/>
      <point x="167" y="437" type="curve" smooth="yes"/>
      <point x="167" y="522"/>
      <point x="207" y="563"/>
      <point x="292" y="563" type="curve" smooth="yes"/>
      <point x="411" y="563"/>
      <point x="430" y="485"/>
      <point x="430" y="323" type="curve" smooth="yes"/>
      <point x="430" y="148"/>
      <point x="369" y="65"/>
    </contour>
  </outline>
</glyph>
<glyph name="colon" format="1">
  <advance width="600"/>
  <unicode hex="003A"/>
  <outline>
    <contour>
      <point x="363" y="146" type="line"/>
      <point x="237" y="146" type="line"/>
      <point x="237" y="0" type="line"/>
      <point x="363" y="0" type="line"/>
    </contour>
    <contour>
      <point x="363" y="488" type="line"/>
      <point x="237" y="488" type="line"/>
      <point x="237" y="342" type="line"/>
      <point x="363" y="342" type="line"/>
    </contour>
  </outline>
</glyph>
<glyph name="equal" format="1">
  <advance width="600"/>
  <unicode hex="003D"/>
  <outline>
    <contour>
      <point x="471" y="196" type="line"/>
      <point x="129" y="196" type="line"/>
      <point x="129" y="244" type="line"/>
      <point x="471" y="244" type="line"/>
    </contour>
    <contour>
      <point x="471" y="342" type="line"/>
      <point x="129" y="342" type="line"/>
      <point x="129" y="390" type="line"/>
      <point x="471" y="390" type="line"/>
    </contour>
  </outline>
</glyph>
<glyph name="greater" format="1">
  <advance width="600"/>
  <unicode hex="003E"/>
  <outline>
    <contour>
      <point x="130" y="488" type="line"/>
      <point x="130" y="402" type="line"/>
      <point x="395" y="245" type="line"/>
      <point x="130" y="85" type="line"/>
      <point x="130" y="-6" type="line"/>
      <point x="470" y="196" type="line"/>
      <point x="470" y="196"/>
      <point x="470" y="293"/>
      <point x="470" y="293" type="curve"/>
    </contour>
  </outline>
</glyph>
<glyph name="question" format="1">
  <advance width="600"/>
  <unicode hex="003F"/>
  <outline>
    <contour>
      <point x="243" y="276" type="line" smooth="yes"/>
      <point x="243" y="394"/>
      <point x="420" y="423"/>
      <point x="420" y="503" type="curve" smooth="yes"/>
      <point x="420" y="607"/>
      <point x="293" y="597"/>
      <point x="293" y="597" type="curve"/>
      <point x="180" y="597"/>
      <point x="135" y="535"/>
      <point x="135" y="535" type="curve"/>
      <point x="90" y="592" type="line"/>
      <point x="90" y="592"/>
      <point x="172" y="675"/>
      <point x="293" y="675" type="curve" smooth="yes"/>
      <point x="429" y="675"/>
      <point x="510" y="608"/>
      <point x="510" y="494" type="curve" smooth="yes"/>
      <point x="510" y="390"/>
      <point x="336" y="359"/>
      <point x="336" y="273" type="curve" smooth="yes"/>
      <point x="336" y="239" type="line"/>
      <point x="243" y="239" type="line"/>
    </contour>
    <contour>
      <point x="336" y="97" type="line"/>
      <point x="243" y="97" type="line"/>
      <point x="243" y="0" type="line"/>
      <point x="336" y="0" type="line"/>
    </contour>
  </outline>
</glyph>
<glyph name="B" format="1">
  <advance width="600"/>
  <unicode hex="0042"/>
  <outline>
    <contour>
      <point x="249" y="561" type="curve" smooth="yes"/>
      <point x="372" y="561"/>
      <point x="403" y="531"/>
      <point x="403" y="466" type="curve" smooth="yes"/>
      <point x="403" y="389"/>
      <point x="360" y="355"/>
      <point x="240" y="355" type="curve" smooth="yes"/>
      <point x="204" y="355"/>
      <point x="205" y="355"/>
      <point x="184" y="355" type="curve"/>
      <point x="184" y="561" type="line"/>
      <point x="201" y="561"/>
      <point x="221" y="561"/>
    </contour>
    <contour>
      <point x="225" y="69" type="curve" smooth="yes"/>
      <point x="190" y="69"/>
      <point x="192" y="69"/>
      <point x="184" y="69" type="curve"/>
      <point x="184" y="287" type="line"/>
      <point x="192" y="287"/>
      <point x="203" y="287"/>
      <point x="248" y="287" type="curve" smooth="yes"/>
      <point x="379" y="287"/>
      <point x="424" y="252"/>
      <point x="424" y="176" type="curve" smooth="yes"/>
      <point x="424" y="103"/>
      <point x="385" y="69"/>
    </contour>
    <contour>
      <point x="326" y="327" type="curve"/>
      <point x="449" y="327"/>
      <point x="481" y="368"/>
      <point x="481" y="460" type="curve" smooth="yes"/>
      <point x="481" y="574"/>
      <point x="435" y="626"/>
      <point x="246" y="626" type="curve" smooth="yes"/>
      <point x="246" y="626"/>
      <point x="90" y="626"/>
      <point x="90" y="626" type="curve"/>
      <point x="90" y="327" type="line"/>
      <point x="90" y="325" type="line"/>
      <point x="90" y="0" type="line"/>
      <point x="90" y="0"/>
      <point x="229" y="0"/>
      <point x="263" y="0" type="curve" smooth="yes"/>
      <point x="449" y="0"/>
      <point x="510" y="56"/>
      <point x="510" y="179" type="curve" smooth="yes"/>
      <point x="510" y="281"/>
      <point x="468" y="327"/>
    </contour>
  </outline>
</glyph>
<glyph name="G" format="1">
  <advance width="600"/>
  <unicode hex="0047"/>
  <outline>
    <contour>
      <point x="425" y="30" type="line"/>
      <point x="511" y="30" type="line"/>
      <point x="511" y="353" type="line"/>
      <point x="425" y="353" type="line"/>
    </contour>
    <contour>
      <point x="511" y="286" type="line"/>
      <point x="511" y="354" type="line"/>
      <point x="332" y="354" type="line"/>
      <point x="332" y="286" type="line"/>
    </contour>
    <contour>
      <point x="317" y="559" type="curve" smooth="yes"/>
      <point x="376" y="559"/>
      <point x="490" y="528"/>
      <point x="490" y="528" type="curve"/>
      <point x="490" y="596" type="line"/>
      <point x="490" y="596"/>
      <point x="385" y="632"/>
      <point x="299" y="632" type="curve" smooth="yes"/>
      <point x="143" y="632"/>
      <point x="50" y="513"/>
      <point x="50" y="312" type="curve" smooth="yes"/>
      <point x="50" y="113"/>
      <point x="143" y="-6"/>
      <point x="299" y="-6" type="curve" smooth="yes"/>
      <point x="384" y="-6"/>
      <point x="511" y="30"/>
      <point x="511" y="30" type="curve"/>
      <point x="511" y="112" type="line"/>
      <point x="511" y="112"/>
      <point x="384" y="70"/>
      <point x="313" y="70" type="curve" smooth="yes"/>
      <point x="210" y="70"/>
      <point x="150" y="160"/>
      <point x="150" y="312" type="curve" smooth="yes"/>
      <point x="150" y="467"/>
      <point x="218" y="559"/>
    </contour>
  </outline>
</glyph>
<glyph name="H" format="1">
  <advance width="600"/>
  <unicode hex="0048"/>
  <outline>
    <contour>
      <point x="522" y="0" type="line"/>
      <point x="427" y="0" type="line"/>
      <point x="427" y="626" type="line"/>
      <point x="522" y="626" type="line"/>
    </contour>
    <contour>
      <point x="172" y="0" type="line"/>
      <point x="77" y="0" type="line"/>
      <point x="77" y="626" type="line"/>
      <point x="172" y="626" type="line"/>
    </contour>
    <contour>
      <point x="476" y="286" type="line"/>
      <point x="77" y="286" type="line"/>
      <point x="77" y="354" type="line"/>
      <point x="476" y="354" type="line"/>
    </contour>
  </outline>
</glyph>
<glyph name="K" format="1">
  <advance width="600"/>
  <unicode hex="004B"/>
  <outline>
    <contour>
      <point x="404" y="0" type="line"/>
      <point x="514" y="0" type="line"/>
      <point x="252" y="331" type="line"/>
      <point x="498" y="626" type="line"/>
      <point x="397" y="626" type="line"/>
      <point x="178" y="350" type="line"/>
      <point x="178" y="625" type="line"/>
      <point x="85" y="625" type="line"/>
      <point x="85" y="0" type="line"/>
      <point x="178" y="0" type="line"/>
      <point x="178" y="241" type="line"/>
      <point x="201" y="269" type="line"/>
    </contour>
  </outline>
</glyph>
<glyph name="L" format="1">
  <advance width="600"/>
  <unicode hex="004C"/>
  <outline>
    <contour>
      <point x="499" y="0" type="line"/>
      <point x="101" y="0" type="line"/>
      <point x="101" y="69" type="line"/>
      <point x="499" y="69" type="line"/>
    </contour>
    <contour>
      <point x="196" y="0" type="line"/>
      <point x="101" y="0" type="line"/>
      <point x="101" y="626" type="line"/>
      <point x="196" y="626" type="line"/>
    </contour>
  </outline>
</glyph>
<glyph name="P" format="1">
  <advance width="600"/>
  <unicode hex="0050"/>
  <outline>
    <contour>
      <point x="186" y="299" type="curve"/>
      <point x="186" y="549" type="line"/>
      <point x="365" y="549"/>
      <point x="417" y="521"/>
      <point x="417" y="429" type="curve" smooth="yes"/>
      <point x="417" y="329"/>
      <point x="365" y="299"/>
    </contour>
    <contour>
      <point x="506" y="432" type="curve" smooth="yes"/>
      <point x="506" y="578"/>
      <point x="433" y="621"/>
      <point x="186" y="623" type="curve"/>
      <point x="186" y="623" type="line"/>
      <point x="93" y="623" type="line"/>
      <point x="93" y="0" type="line"/>
      <point x="186" y="0" type="line"/>
      <point x="186" y="225" type="line"/>
      <point x="433" y="228"/>
      <point x="506" y="275"/>
    </contour>
  </outline>
</glyph>
<glyph name="U" format="1">
  <advance width="600"/>
  <unicode hex="0055"/>
  <outline>
    <contour>
      <point x="530" y="626" type="line"/>
      <point x="441" y="626" type="line"/>
      <point x="441" y="244" type="line" smooth="yes"/>
      <point x="441" y="126"/>
      <point x="394" y="67"/>
      <point x="300" y="67" type="curve" smooth="yes"/>
      <point x="206" y="67"/>
      <point x="159" y="126"/>
      <point x="159" y="244" type="curve" smooth="yes"/>
      <point x="159" y="626" type="line"/>
      <point x="70" y="626" type="line"/>
      <point x="70" y="244" type="line" smooth="yes"/>
      <point x="70" y="77"/>
      <point x="147" y="-6"/>
      <point x="300" y="-6" type="curve" smooth="yes"/>
      <point x="453" y="-6"/>
      <point x="530" y="77"/>
      <point x="530" y="244" type="curve" smooth="yes"/>
    </contour>
  </outline>
</glyph>
<glyph name="V" format="1">
  <advance width="600"/>
  <unicode hex="0056"/>
  <outline>
    <contour>
      <point x="457" y="626" type="line"/>
      <point x="310" y="129" type="line"/>
      <point x="143" y="626" type="line"/>
      <point x="59" y="626" type="line"/>
      <point x="272" y="0" type="line"/>
      <point x="358" y="0" type="line"/>
      <point x="540" y="626" type="line"/>
    </contour>
  </outline>
</glyph>
<glyph name="X" format="1">
  <advance width="600"/>
  <unicode hex="0058"/>
  <outline>
    <contour>
      <point x="544" y="626" type="line"/>
      <point x="445" y="626" type="line"/>
      <point x="302" y="383" type="line"/>
      <point x="155" y="626" type="line"/>
      <point x="56" y="626" type="line"/>
      <point x="255" y="313" type="line"/>
      <point x="56" y="0" type="line"/>
      <point x="155" y="0" type="line"/>
      <point x="302" y="243" type="line"/>
      <point x="445" y="0" type="line"/>
      <point x="544" y="0" type="line"/>
      <point x="350" y="313" type="line"/>
    </contour>
  </outline>
</glyph>
<glyph name="bracketleft" format="1">
  <advance width="600"/>
  <unicode hex="005B"/>
  <outline>
    <contour>
      <point x="397" y="-198" type="line"/>
      <point x="397" y="-148" type="line"/>
      <point x="268" y="-148" type="line"/>
      <point x="268" y="636" type="line"/>
      <point x="397" y="636" type="line"/>
      <point x="397" y="675" type="line"/>
      <point x="203" y="675" type="line"/>
      <point x="203" y="-198" type="line"/>
    </contour>
  </outline>
</glyph>
<glyph name="a" format="1">
  <advance width="600"/>
  <unicode hex="0061"/>
  <outline>
    <contour>
      <point x="518" y="-9" type="line"/>
      <point x="518" y="315" type="line" smooth="yes"/>
      <point x="518" y="431"/>
      <point x="432" y="499"/>
      <point x="289" y="499" type="curve" smooth="yes"/>
      <point x="225" y="499"/>
      <point x="139" y="484"/>
      <point x="105" y="458" type="curve"/>
      <point x="105" y="353" type="line"/>
      <point x="156" y="383"/>
      <point x="241" y="404"/>
      <point x="300" y="404" type="curve" smooth="yes"/>
      <point x="365" y="404"/>
      <point x="394" y="377"/>
      <point x="394" y="312" type="curve" smooth="yes"/>
      <point x="394" y="-9" type="line"/>
    </contour>
    <contour>
      <point x="375" y="-15"/>
      <point x="457" y="47"/>
      <point x="457" y="47" type="curve"/>
      <point x="414" y="119" type="line"/>
      <point x="362" y="79"/>
      <point x="328" y="67"/>
      <point x="274" y="67" type="curve" smooth="yes"/>
      <point x="229" y="67"/>
      <point x="199" y="95"/>
      <point x="199" y="135" type="curve" smooth="yes"/>
      <point x="199" y="175"/>
      <point x="228" y="193"/>
      <point x="443" y="193" type="curve"/>
      <point x="443" y="282" type="line"/>
      <point x="238" y="282"/>
      <point x="71" y="287"/>
      <point x="71" y="130" type="curve" smooth="yes"/>
      <point x="71" y="36"/>
      <point x="133" y="-15"/>
      <point x="247" y="-15" type="curve" smooth="yes"/>
    </contour>
  </outline>
</glyph>
<glyph name="f" format="1">
  <advance width="600"/>
  <unicode hex="0066"/>
  <outline>
    <contour>
      <point x="499" y="338" type="line"/>
      <point x="101" y="338" type="line"/>
      <point x="101" y="407" type="line"/>
      <point x="499" y="407" type="line"/>
    </contour>
    <contour>
      <point x="302" y="500" type="curve" smooth="yes"/>
      <point x="302" y="0" type="line"/>
      <point x="220" y="0" type="line"/>
      <point x="220" y="0"/>
      <point x="220" y="423"/>
      <point x="220" y="500" type="curve" smooth="yes"/>
      <point x="220" y="640"/>
      <point x="270" y="680"/>
      <point x="369" y="680" type="curve" smooth="yes"/>
      <point x="438" y="680"/>
      <point x="486" y="660"/>
      <point x="486" y="660" type="curve"/>
      <point x="486" y="586" type="line"/>
      <point x="486" y="586"/>
      <point x="452" y="610"/>
      <point x="383" y="610" type="curve" smooth="yes"/>
      <point x="331" y="610"/>
      <point x="302" y="597"/>
    </contour>
  </outline>
</glyph>
<glyph name="g" format="1">
  <advance width="600"/>
  <unicode hex="0067"/>
  <outline>
    <contour>
      <point x="416" y="82" type="curve" smooth="yes"/>
      <point x="416" y="479" type="line"/>
      <point x="499" y="456" type="line"/>
      <point x="499" y="456"/>
      <point x="499" y="159"/>
      <point x="499" y="82" type="curve" smooth="yes"/>
      <point x="499" y="-126"/>
      <point x="488" y="-206"/>
      <point x="312" y="-206" type="curve" smooth="yes"/>
      <point x="190" y="-206"/>
      <point x="126" y="-170"/>
      <point x="126" y="-170" type="curve"/>
      <point x="126" y="-95" type="line"/>
      <point x="126" y="-95"/>
      <point x="211" y="-131"/>
      <point x="300" y="-131" type="curve" smooth="yes"/>
      <point x="414" y="-131"/>
      <point x="416" y="-71"/>
    </contour>
    <contour>
      <point x="499" y="398" type="line"/>
      <point x="499" y="398"/>
      <point x="417" y="424"/>
      <point x="331" y="424" type="curve" smooth="yes"/>
      <point x="224" y="424"/>
      <point x="183" y="377"/>
      <point x="183" y="253" type="curve" smooth="yes"/>
      <point x="183" y="145"/>
      <point x="212" y="69"/>
      <point x="289" y="69" type="curve" smooth="yes"/>
      <point x="385" y="69"/>
      <point x="443" y="187"/>
      <point x="443" y="187" type="curve"/>
      <point x="444" y="144" type="line"/>
      <point x="444" y="144"/>
      <point x="418" y="-6"/>
      <point x="269" y="-6" type="curve" smooth="yes"/>
      <point x="140" y="-6"/>
      <point x="101" y="107"/>
      <point x="101" y="250" type="curve" smooth="yes"/>
      <point x="101" y="423"/>
      <point x="164" y="488"/>
      <point x="327" y="488" type="curve" smooth="yes"/>
      <point x="416" y="488"/>
      <point x="499" y="470"/>
      <point x="499" y="470" type="curve"/>
    </contour>
  </outline>
</glyph>
<glyph name="j" format="1">
  <advance width="600"/>
  <unicode hex="006A"/>
  <outline>
    <contour>
      <point x="459" y="411" type="line"/>
      <point x="201" y="411" type="line"/>
      <point x="201" y="479" type="line"/>
      <point x="459" y="479" type="line"/>
    </contour>
    <contour>
      <point x="469" y="676" type="curve" smooth="yes"/>
      <point x="469" y="712"/>
      <point x="441" y="740"/>
      <point x="406" y="740" type="curve" smooth="yes"/>
      <point x="369" y="740"/>
      <point x="341" y="712"/>
      <point x="341" y="676" type="curve" smooth="yes"/>
      <point x="341" y="640"/>
      <point x="369" y="612"/>
      <point x="406" y="612" type="curve" smooth="yes"/>
      <point x="441" y="612"/>
      <point x="469" y="640"/>
    </contour>
    <contour>
      <point x="381" y="32" type="curve" smooth="yes"/>
      <point x="381" y="479" type="line"/>
      <point x="463" y="479" type="line"/>
      <point x="463" y="479"/>
      <point x="463" y="89"/>
      <point x="463" y="12" type="curve" smooth="yes"/>
      <point x="463" y="-164"/>
      <point x="402" y="-206"/>
      <point x="268" y="-206" type="curve" smooth="yes"/>
      <point x="199" y="-206"/>
      <point x="130" y="-186"/>
      <point x="130" y="-186" type="curve"/>
      <point x="130" y="-109" type="line"/>
      <point x="130" y="-109"/>
      <point x="188" y="-131"/>
      <point x="255" y="-131" type="curve"/>
      <point x="356" y="-131"/>
      <point x="381" y="-106"/>
    </contour>
  </outline>
</glyph>
<glyph name="l" format="1">
  <advance width="600"/>
  <unicode hex="006C"/>
  <outline>
    <contour>
      <point x="395" y="69" type="curve" smooth="yes"/>
      <point x="315" y="69"/>
      <point x="317" y="168"/>
      <point x="318" y="248" type="curve"/>
      <point x="318" y="626" type="line" smooth="yes"/>
      <point x="147" y="626" type="line"/>
      <point x="147" y="558" type="line"/>
      <point x="235" y="558" type="line"/>
      <point x="235" y="283" type="line" smooth="yes"/>
      <point x="235" y="136"/>
      <point x="236" y="-6"/>
      <point x="383" y="-6" type="curve" smooth="yes"/>
      <point x="408" y="-6"/>
      <point x="430" y="-2"/>
      <point x="453" y="5" type="curve"/>
      <point x="453" y="75" type="line"/>
      <point x="434" y="71"/>
      <point x="414" y="69"/>
    </contour>
  </outline>
</glyph>
<glyph name="s" format="1">
  <advance width="600"/>
  <unicode hex="0073"/>
  <outline>
    <contour>
      <point x="473" y="460" type="curve"/>
      <point x="473" y="377" type="line"/>
      <point x="418" y="398"/>
      <point x="369" y="413"/>
      <point x="300" y="413" type="curve" smooth="yes"/>
      <point x="217" y="413"/>
      <point x="186" y="390"/>
      <point x="186" y="355" type="curve" smooth="yes"/>
      <point x="186" y="318"/>
      <point x="221" y="297"/>
      <point x="308" y="288" type="curve" smooth="yes"/>
      <point x="424" y="276"/>
      <point x="498" y="248"/>
      <point x="498" y="142" type="curve" smooth="yes"/>
      <point x="498" y="30"/>
      <point x="412" y="-6"/>
      <point x="281" y="-6" type="curve" smooth="yes"/>
      <point x="220" y="-6"/>
      <point x="159" y="2"/>
      <point x="101" y="25" type="curve"/>
      <point x="101" y="105" type="line"/>
      <point x="160" y="83"/>
      <point x="221" y="68"/>
      <point x="287" y="68" type="curve" smooth="yes"/>
      <point x="371" y="68"/>
      <point x="416" y="92"/>
      <point x="416" y="136" type="curve" smooth="yes"/>
      <point x="416" y="184"/>
      <point x="361" y="199"/>
      <point x="278" y="206" type="curve" smooth="yes"/>
      <point x="181" y="214"/>
      <point x="103" y="243"/>
      <point x="103" y="348" type="curve" smooth="yes"/>
      <point x="103" y="451"/>
      <point x="194" y="488"/>
      <point x="303" y="488" type="curve" smooth="yes"/>
      <point x="360" y="488"/>
      <point x="414" y="478"/>
    </contour>
  </outline>
</glyph>
<glyph name="v" format="1">
  <advance width="600"/>
  <unicode hex="0076"/>
  <outline>
    <contour>
      <point x="460" y="479" type="line"/>
      <point x="301" y="88" type="line"/>
      <point x="310" y="88" type="line"/>
      <point x="153" y="479" type="line"/>
      <point x="64" y="479" type="line"/>
      <point x="257" y="0" type="line"/>
      <point x="343" y="0" type="line"/>
      <point x="536" y="479" type="line"/>
    </contour>
  </outline>
</glyph>
<glyph name="w" format="1">
  <advance width="600"/>
  <unicode hex="0077"/>
  <outline>
    <contour>
      <point x="497" y="479" type="line"/>
      <point x="411" y="87" type="line"/>
      <point x="428" y="87" type="line"/>
      <point x="336" y="316" type="line"/>
      <point x="260" y="316" type="line"/>
      <point x="183" y="82" type="line"/>
      <point x="191" y="82" type="line"/>
      <point x="104" y="479" type="line"/>
      <point x="29" y="479" type="line"/>
      <point x="142" y="0" type="line"/>
      <point x="210" y="0" type="line"/>
      <point x="210" y="0" type="line"/>
      <point x="298" y="230" type="line"/>
      <point x="389" y="0" type="line"/>
      <point x="389" y="0" type="line"/>
      <point x="458" y="0" type="line"/>
      <point x="570" y="479" type="line"/>
    </contour>
  </outline>
</glyph>
<glyph name="y" format="1">
  <advance width="600"/>
  <unicode hex="0079"/>
  <outline>
    <contour>
      <point x="453" y="479" type="line"/>
      <point x="299" y="105" type="line"/>
      <point x="147" y="479" type="line"/>
      <point x="64" y="479" type="line"/>
      <point x="257" y="1" type="line"/>
      <point x="256" y="0" type="line"/>
      <point x="256" y="0"/>
      <point x="197" y="-132"/>
      <point x="99" y="-132" type="curve"/>
      <point x="99" y="-206" type="line"/>
      <point x="276" y="-206"/>
      <point x="343" y="0"/>
      <point x="343" y="0" type="curve"/>
      <point x="536" y="479" type="line"/>
    </contour>
  </outline>
</glyph>
<glyph name="bar" format="1">
  <advance width="600"/>
  <unicode hex="007C"/>
  <outline>
    <contour>
      <point x="266" y="-198" type="curve"/>
      <point x="266" y="675" type="line"/>
      <point x="266" y="675"/>
      <point x="323" y="675"/>
      <point x="323" y="675" type="curve"/>
      <point x="323" y="-198" type="line"/>
      <point x="323" y="-198"/>
      <point x="266" y="-198"/>
    </contour>
  </outline>
</glyph>
<glyph name="braceright" format="1">
  <advance width="600"/>
  <unicode hex="007D"/>
  <outline>
    <contour>
      <point x="250" y="474" type="curve" smooth="yes"/>
      <point x="250" y="336"/>
      <point x="264" y="265"/>
      <point x="366" y="241" type="curve"/>
      <point x="264" y="219"/>
      <point x="250" y="165"/>
      <point x="250" y="7" type="curve" smooth="yes"/>
      <point x="250" y="-91"/>
      <point x="231" y="-129"/>
      <point x="113" y="-129" type="curve"/>
      <point x="113" y="-199" type="line"/>
      <point x="230" y="-199"/>
      <point x="330" y="-180"/>
      <point x="330" y="7" type="curve" smooth="yes"/>
      <point x="330" y="184"/>
      <point x="348" y="203"/>
      <point x="487" y="212" type="curve"/>
      <point x="487" y="212"/>
      <point x="487" y="279"/>
      <point x="487" y="279" type="curve"/>
      <point x="348" y="279"/>
      <point x="330" y="297"/>
      <point x="330" y="474" type="curve" smooth="yes"/>
      <point x="330" y="661"/>
      <point x="230" y="680"/>
      <point x="113" y="680" type="curve"/>
      <point x="113" y="610" type="line"/>
      <point x="231" y="610"/>
      <point x="250" y="572"/>
    </contour>
  </outline>
</glyph>
<glyph name="uni00B5" format="1">
  <advance width="600"/>
  <unicode hex="00B5"/>
  <outline>
    <contour>
      <point x="95" y="479" type="line"/>
      <point x="95" y="-199" type="line"/>
      <point x="178" y="-199" type="line"/>
      <point x="178" y="479" type="line"/>
    </contour>
    <component base="u" xOffset="26"/>
  </outline>
</glyph>
<glyph name="guillemotright" format="1">
  <advance width="600"/>
  <unicode hex="00BB"/>
  <outline>
    <contour>
      <point x="300" y="405" type="line"/>
      <point x="439" y="279" type="line"/>
      <point x="439" y="199" type="line"/>
      <point x="300" y="80" type="line"/>
      <point x="300" y="164" type="line"/>
      <point x="385" y="241" type="line"/>
      <point x="300" y="318" type="line"/>
    </contour>
    <contour>
      <point x="161" y="405" type="line"/>
      <point x="300" y="279" type="line"/>
      <point x="300" y="199" type="line"/>
      <point x="161" y="80" type="line"/>
      <point x="161" y="164" type="line"/>
      <point x="246" y="241" type="line"/>
      <point x="161" y="318" type="line"/>
    </contour>
  </outline>
</glyph>
<glyph name="onequarter" format="1">
  <advance width="600"/>
  <unicode hex="00BC"/>
  <outline>
    <contour>
      <point x="196" y="320" type="line"/>
      <point x="196" y="561" type="line"/>
      <point x="155" y="561" type="line"/>
      <point x="107" y="550" type="line"/>
      <point x="107" y="518" type="line"/>
      <point x="155" y="525" type="line"/>
      <point x="155" y="320" type="line"/>
      <point x="91" y="320" type="line"/>
      <point x="91" y="291" type="line"/>
      <point x="263" y="291" type="line"/>
      <point x="263" y="320" type="line"/>
    </contour>
    <contour>
      <point x="509" y="23" type="line"/>
      <point x="454" y="23" type="line"/>
      <point x="454" y="199" type="line"/>
      <point x="418" y="199" type="line"/>
      <point x="305" y="23" type="line"/>
      <point x="305" y="-7" type="line"/>
      <point x="418" y="-7" type="line"/>
      <point x="418" y="-71" type="line"/>
      <point x="454" y="-71" type="line"/>
      <point x="454" y="-7" type="line"/>
      <point x="509" y="-7" type="line"/>
    </contour>
    <contour>
      <point x="341" y="23" type="line"/>
      <point x="418" y="143" type="line"/>
      <point x="418" y="23" type="line"/>
    </contour>
    <contour>
      <point x="175" y="70" type="line"/>
      <point x="482" y="380" type="line"/>
      <point x="451" y="411" type="line"/>
      <point x="143" y="103" type="line"/>
    </contour>
  </outline>
</glyph>
<glyph name="Acircumflex" format="1">
  <advance width="600"/>
  <unicode hex="00C2"/>
  <outline>
    <contour>
      <point x="432" y="687" type="line"/>
      <point x="345" y="687" type="line"/>
      <point x="268" y="772" type="line"/>
      <point x="192" y="687" type="line"/>
      <point x="107" y="687" type="line"/>
      <point x="226" y="825" type="line"/>
      <point x="306" y="825" type="line"/>
    </contour>
    <component base="A"/>
  </outline>
</glyph>
<glyph name="Atilde" format="1">
  <advance width="600"/>
  <unicode hex="00C3"/>
  <outline>
    <contour>
      <point x="27" y="0" type="line"/>
    </contour>
    <contour>
      <point x="121" y="728"/>
      <point x="158" y="798"/>
      <point x="226" y="798" type="curve" smooth="yes"/>
      <point x="293" y="798"/>
      <point x="320" y="745"/>
      <point x="363" y="745" type="curve" smooth="yes"/>
      <point x="402" y="745"/>
      <point x="425" y="791"/>
      <point x="425" y="791" type="curve"/>
      <point x="425" y="791"/>
      <point x="466" y="752"/>
      <point x="466" y="752" type="curve"/>
      <point x="466" y="752"/>
      <point x="421" y="684"/>
      <point x="362" y="684" type="curve" smooth="yes"/>
      <point x="302" y="684"/>
      <point x="261" y="736"/>
      <point x="223" y="736" type="curve" smooth="yes"/>
      <point x="184" y="736"/>
      <point x="162" y="690"/>
      <point x="162" y="690" type="curve"/>
      <point x="121" y="728" type="line"/>
    </contour>
    <component base="A" xOffset="25"/>
  </outline>
</glyph>
<glyph name="Adieresis" format="1">
  <advance width="600"/>
  <unicode hex="00C4"/>
  <outline>
    <contour>
      <point x="217" y="729" type="curve" smooth="yes"/>
      <point x="217" y="758"/>
      <point x="194" y="783"/>
      <point x="163" y="783" type="curve" smooth="yes"/>
      <point x="134" y="783"/>
      <point x="111" y="758"/>
      <point x="111" y="729" type="curve" smooth="yes"/>
      <point x="111" y="699"/>
      <point x="134" y="675"/>
      <point x="163" y="675" type="curve" smooth="yes"/>
      <point x="194" y="675"/>
      <point x="217" y="699"/>
    </contour>
    <contour>
      <point x="427" y="729" type="curve" smooth="yes"/>
      <point x="427" y="758"/>
      <point x="403" y="783"/>
      <point x="373" y="783" type="curve" smooth="yes"/>
      <point x="343" y="783"/>
      <point x="320" y="758"/>
      <point x="320" y="729" type="curve" smooth="yes"/>
      <point x="320" y="699"/>
      <point x="343" y="675"/>
      <point x="373" y="675" type="curve" smooth="yes"/>
      <point x="403" y="675"/>
      <point x="427" y="699"/>
    </contour>
    <component base="A"/>
  </outline>
</glyph>
<glyph name="Aring" format="1">
  <advance width="600"/>
  <unicode hex="00C5"/>
  <outline>
    <contour>
      <point x="269" y="869" type="curve" smooth="yes"/>
      <point x="215" y="869"/>
      <point x="172" y="826"/>
      <point x="172" y="773" type="curve" smooth="yes"/>
      <point x="172" y="719"/>
      <point x="215" y="676"/>
      <point x="269" y="676" type="curve" smooth="yes"/>
      <point x="322" y="676"/>
      <point x="365" y="719"/>
      <point x="365" y="773" type="curve" smooth="yes"/>
      <point x="365" y="826"/>
      <point x="322" y="869"/>
    </contour>
    <contour>
      <point x="269" y="729" type="curve" smooth="yes"/>
      <point x="245" y="729"/>
      <point x="225" y="748"/>
      <point x="225" y="773" type="curve" smooth="yes"/>
      <point x="225" y="796"/>
      <point x="245" y="816"/>
      <point x="269" y="816" type="curve" smooth="yes"/>
      <point x="293" y="816"/>
      <point x="312" y="796"/>
      <point x="312" y="773" type="curve" smooth="yes"/>
      <point x="312" y="748"/>
      <point x="293" y="729"/>
    </contour>
    <component base="A"/>
  </outline>
</glyph>
<glyph name="Eacute" format="1">
  <advance width="600"/>
  <unicode hex="00C9"/>
  <outline>
    <contour>
      <point x="227" y="691" type="line"/>
      <point x="328" y="792" type="line"/>
      <point x="446" y="792" type="line"/>
      <point x="310" y="691" type="line"/>
    </contour>
    <component base="E"/>
  </outline>
</glyph>
<glyph name="Idieresis" format="1">
  <advance width="600"/>
  <unicode hex="00CF"/>
  <outline>
    <contour>
      <point x="216" y="729" type="curve" smooth="yes"/>
      <point x="216" y="758"/>
      <point x="193" y="783"/>
      <point x="162" y="783" type="curve" smooth="yes"/>
      <point x="133" y="783"/>
      <point x="110" y="758"/>
      <point x="110" y="729" type="curve" smooth="yes"/>
      <point x="110" y="699"/>
      <point x="133" y="675"/>
      <point x="162" y="675" type="curve" smooth="yes"/>
      <point x="193" y="675"/>
      <point x="216" y="699"/>
    </contour>
    <contour>
      <point x="426" y="729" type="curve" smooth="yes"/>
      <point x="426" y="758"/>
      <point x="402" y="783"/>
      <point x="372" y="783" type="curve" smooth="yes"/>
      <point x="342" y="783"/>
      <point x="319" y="758"/>
      <point x="319" y="729" type="curve" smooth="yes"/>
      <point x="319" y="699"/>
      <point x="342" y="675"/>
      <point x="372" y="675" type="curve" smooth="yes"/>
      <point x="402" y="675"/>
      <point x="426" y="699"/>
    </contour>
    <component base="I"/>
  </outline>
</glyph>
<glyph name="multiply" format="1">
  <advance width="600"/>
  <unicode hex="00D7"/>
  <outline>
    <contour>
      <point x="196" y="407" type="line"/>
      <point x="438" y="165" type="line"/>
      <point x="404" y="131" type="line"/>
      <point x="162" y="373" type="line"/>
    </contour>
    <contour>
      <point x="438" y="374" type="line"/>
      <point x="196" y="132" type="line"/>
      <point x="163" y="165" type="line"/>
      <point x="405" y="407" type="line"/>
    </contour>
  </outline>
</glyph>
<glyph name="Uacute" format="1">
  <advance width="600"/>
  <unicode hex="00DA"/>
  <outline>
    <contour>
      <point x="229" y="691" type="line"/>
      <point x="330" y="792" type="line"/>
      <point x="448" y="792" type="line"/>
      <point x="312" y="691" type="line"/>
    </contour>
    <component base="U"/>
  </outline>
</glyph>
<glyph name="Thorn" format="1">
  <advance width="600"/>
  <unicode hex="00DE"/>
  <outline>
    <contour>
      <point x="186" y="155" type="curve"/>
      <point x="186" y="404" type="line"/>
      <point x="362" y="404"/>
      <point x="417" y="376"/>
      <point x="417" y="285" type="curve" smooth="yes"/>
      <point x="417" y="186"/>
      <point x="362" y="155"/>
    </contour>
    <contour>
      <point x="506" y="288" type="curve" smooth="yes"/>
      <point x="506" y="430"/>
      <point x="429" y="476"/>
      <point x="186" y="478" type="curve"/>
      <point x="186" y="478" type="line"/>
      <point x="186" y="626" type="line"/>
      <point x="93" y="626" type="line"/>
      <point x="93" y="0" type="line"/>
      <point x="186" y="0" type="line"/>
      <point x="186" y="80" type="line"/>
      <point x="429" y="83"/>
      <point x="506" y="133"/>
    </contour>
  </outline>
</glyph>
<glyph name="agrave" format="1">
  <advance width="600"/>
  <unicode hex="00E0"/>
  <outline>
    <contour>
      <point x="320" y="573" type="line"/>
      <point x="237" y="573" type="line"/>
      <point x="101" y="675" type="line"/>
      <point x="219" y="675" type="line"/>
    </contour>
    <component base="a" xOffset="2"/>
  </outline>
</glyph>
<glyph name="ntilde" format="1">
  <advance width="600"/>
  <unicode hex="00F1"/>
  <outline>
    <contour>
      <point x="101" y="604"/>
      <point x="138" y="674"/>
      <point x="206" y="674" type="curve" smooth="yes"/>
      <point x="273" y="674"/>
      <point x="300" y="621"/>
      <point x="342" y="621" type="curve" smooth="yes"/>
      <point x="382" y="621"/>
      <point x="405" y="667"/>
      <point x="405" y="667" type="curve"/>
      <point x="405" y="667"/>
      <point x="446" y="628"/>
      <point x="446" y="628" type="curve"/>
      <point x="446" y="628"/>
      <point x="401" y="560"/>
      <point x="342" y="560" type="curve" smooth="yes"/>
      <point x="282" y="560"/>
      <point x="241" y="611"/>
      <point x="203" y="611" type="curve" smooth="yes"/>
      <point x="164" y="611"/>
      <point x="142" y="565"/>
      <point x="142" y="565" type="curve"/>
      <point x="101" y="604" type="line"/>
    </contour>
    <component base="n" xOffset="4"/>
  </outline>
</glyph>
<glyph name="odieresis" format="1">
  <advance width="600"/>
  <unicode hex="00F6"/>
  <outline>
    <contour>
      <point x="217" y="621" type="curve" smooth="yes"/>
      <point x="217" y="651"/>
      <point x="194" y="675"/>
      <point x="163" y="675" type="curve" smooth="yes"/>
      <point x="134" y="675"/>
      <point x="111" y="651"/>
      <point x="111" y="621" type="curve" smooth="yes"/>
      <point x="111" y="592"/>
      <point x="134" y="567"/>
      <point x="163" y="567" type="curve" smooth="yes"/>
      <point x="194" y="567"/>
      <point x="217" y="592"/>
    </contour>
    <contour>
      <point x="427" y="621" type="curve" smooth="yes"/>
      <point x="427" y="651"/>
      <point x="403" y="675"/>
      <point x="373" y="675" type="curve" smooth="yes"/>
      <point x="343" y="675"/>
      <point x="320" y="651"/>
      <point x="320" y="621" type="curve" smooth="yes"/>
      <point x="320" y="592"/>
      <point x="343" y="567"/>
      <point x="373" y="567" type="curve" smooth="yes"/>
      <point x="403" y="567"/>
      <point x="427" y="592"/>
    </contour>
    <component base="o"/>
  </outline>
</glyph>
<glyph name="ucircumflex" format="1">
  <advance width="600"/>
  <unicode hex="00FB"/>
  <outline>
    <contour>
      <point x="398" y="573" type="line"/>
      <point x="311" y="573" type="line"/>
      <point x="270" y="622" type="line"/>
      <point x="229" y="573" type="line"/>
      <point x="144" y="573" type="line"/>
      <point x="228" y="675" type="line"/>
      <point x="308" y="675" type="line"/>
    </contour>
    <component base="u"/>
  </outline>
</glyph>
<glyph name="Scaron" format="1">
  <advance width="600"/>
  <unicode hex="0160"/>
  <outline>
    <contour>
      <point x="396" y="777" type="line"/>
      <point x="306" y="675" type="line"/>
      <point x="226" y="675" type="line"/>
      <point x="142" y="777" type="line"/>
      <point x="227" y="777" type="line"/>
      <point x="268" y="728" type="line"/>
      <point x="309" y="777" type="line"/>
    </contour>
    <component base="S"/>
  </outline>
</glyph>
<glyph name="quoteright" format="1">
  <advance width="600"/>
  <unicode hex="2019"/>
  <outline>
    <contour>
      <point x="349" y="675" type="line"/>
      <point x="250" y="675" type="line"/>
      <point x="250" y="390" type="line"/>
      <point x="312" y="390" type="line"/>
    </contour>
  </outline>
</glyph>
<glyph name="quotedblright" format="1">
  <advance width="600"/>
  <unicode hex="201D"/>
  <outline>
    <contour>
      <point x="226" y="675" type="line"/>
      <point x="128" y="675" type="line"/>
      <point x="128" y="391" type="line"/>
      <point x="196" y="391" type="line"/>
    </contour>
    <contour>
      <point x="471" y="675" type="line"/>
      <point x="372" y="675" type="line"/>
      <point x="372" y="390" type="line"/>
      <point x="435" y="390" type="line"/>
    </contour>
  </outline>
</glyph>
<glyph name="bullet" format="1">
  <advance width="600"/>
  <unicode hex="2022"/>
  <outline>
    <contour>
      <point x="188" y="111" type="line"/>
      <point x="424" y="111" type="line"/>
      <point x="424" y="347" type="line"/>
      <point x="188" y="347" type="line"/>
    </contour>
  </outline>
</glyph>
<glyph name="ellipsis" format="1">
  <advance width="600"/>
  <unicode hex="2026"/>
  <outline>
    <contour>
      <point x="139" y="111" type="line"/>
      <point x="13" y="111" type="line"/>
      <point x="13" y="1" type="line"/>
      <point x="139" y="1" type="line"/>
    </contour>
    <contour>
      <point x="360" y="111" type="line"/>
      <point x="234" y="111" type="line"/>
      <point x="234" y="1" type="line"/>
      <point x="360" y="1" type="line"/>
    </contour>
    <contour>
      <point x="583" y="112" type="line"/>
      <point x="457" y="112" type="line"/>
      <point x="457" y="1" type="line"/>
      <point x="583" y="1" type="line"/>
    </contour>
  </outline>
</glyph>
